HIERARCHY
ROOT Hips
{
	OFFSET -14.64140 90.27770 -84.91600
	CHANNELS 6 Xposition Yposition Zposition Zrotation Xrotation Yrotation
	JOINT Spine
	{
		OFFSET 0.00000 13.20850 -1.60436
		CHANNELS 3 Zrotation Xrotation Yrotation
		JOINT Spine1
		{
			OFFSET 0.00000 8.61716 0.00000
			CHANNELS 3 Zrotation Xrotation Yrotation
			JOINT Spine2
			{
				OFFSET 0.00000 8.61717 0.00000
				CHANNELS 3 Zrotation Xrotation Yrotation
				JOINT Spine3
				{
					OFFSET 0.00000 8.61717 0.00000
					CHANNELS 3 Zrotation Xrotation Yrotation
					JOINT Neck
					{
						OFFSET 0.00000 11.07920 1.10792
						CHANNELS 3 Zrotation Xrotation Yrotation
						JOINT Neck1
						{
							OFFSET 0.00000 7.08032 0.00000
							CHANNELS 3 Zrotation Xrotation Yrotation
							JOINT Head
							{
								OFFSET 0.00000 7.08031 0.00000
								CHANNELS 3 Zrotation Xrotation Yrotation
								End site
								{
									OFFSET 0.00000 0.00000 0.00000
								}
							}
						}
					}
					JOINT RightShoulder
					{
						OFFSET -0.01000 7.91373 5.19711
						CHANNELS 3 Zrotation Xrotation Yrotation
						JOINT RightArm
						{
							OFFSET -18.41580 0.00000 0.00000
							CHANNELS 3 Zrotation Xrotation Yrotation
							JOINT RightForeArm
							{
								OFFSET -29.11090 0.00000 0.00000
								CHANNELS 3 Zrotation Xrotation Yrotation
								JOINT RightHand
								{
									OFFSET -24.65040 0.00000 0.00000
									CHANNELS 3 Zrotation Xrotation Yrotation
									JOINT RightHandThumb1
									{
										OFFSET -5.35114 -0.85590 3.97906
										CHANNELS 3 Zrotation Xrotation Yrotation
										JOINT RightHandThumb2
										{
											OFFSET -4.52789 0.00000 0.00000
											CHANNELS 3 Zrotation Xrotation Yrotation
											JOINT RightHandThumb3
											{
												OFFSET -2.46976 0.00000 0.00000
												CHANNELS 3 Zrotation Xrotation Yrotation
												End site
												{
													OFFSET 0.00000 0.00000 0.00000
												}
											}
										}
									}
									JOINT RightHandIndex1
									{
										OFFSET -14.26970 0.00000 2.88139
										CHANNELS 3 Zrotation Xrotation Yrotation
										JOINT RightHandIndex2
										{
											OFFSET -5.48836 0.00000 0.00000
											CHANNELS 3 Zrotation Xrotation Yrotation
											JOINT RightHandIndex3
											{
												OFFSET -3.01859 0.00000 0.00000
												CHANNELS 3 Zrotation Xrotation Yrotation
												End site
												{
													OFFSET 0.00000 0.00000 0.00000
												}
											}
										}
									}
									JOINT RightHandMiddle1
									{
										OFFSET -14.26970 0.00000 -0.09147
										CHANNELS 3 Zrotation Xrotation Yrotation
										JOINT RightHandMiddle2
										{
											OFFSET -6.17441 0.00000 0.00000
											CHANNELS 3 Zrotation Xrotation Yrotation
											JOINT RightHandMiddle3
											{
												OFFSET -3.56743 0.00000 0.00000
												CHANNELS 3 Zrotation Xrotation Yrotation
												End site
												{
													OFFSET 0.00000 0.00000 0.00000
												}
											}
										}
									}
									JOINT RightHandRing1
									{
										OFFSET -12.69180 0.00000 -3.06433
										CHANNELS 3 Zrotation Xrotation Yrotation
										JOINT RightHandRing2
										{
											OFFSET -5.62556 0.00000 0.00000
											CHANNELS 3 Zrotation Xrotation Yrotation
											JOINT RightHandRing3
											{
												OFFSET -3.56744 0.00000 0.00000
												CHANNELS 3 Zrotation Xrotation Yrotation
												End site
												{
													OFFSET 0.00000 0.00000 0.00000
												}
											}
										}
									}
									JOINT RightHandPinky1
									{
										OFFSET -11.11390 0.00000 -6.03719
										CHANNELS 3 Zrotation Xrotation Yrotation
										JOINT RightHandPinky2
										{
											OFFSET -4.52789 0.00000 0.00000
											CHANNELS 3 Zrotation Xrotation Yrotation
											JOINT RightHandPinky3
											{
												OFFSET -2.46976 0.00000 0.00000
												CHANNELS 3 Zrotation Xrotation Yrotation
												End site
												{
													OFFSET 0.00000 0.00000 0.00000
												}
											}
										}
									}
								}
							}
						}
					}
					JOINT LeftShoulder
					{
						OFFSET 0.01000 7.91373 5.19711
						CHANNELS 3 Zrotation Xrotation Yrotation
						JOINT LeftArm
						{
							OFFSET 18.41580 0.00000 0.00000
							CHANNELS 3 Zrotation Xrotation Yrotation
							JOINT LeftForeArm
							{
								OFFSET 29.11090 0.00000 0.00000
								CHANNELS 3 Zrotation Xrotation Yrotation
								JOINT LeftHand
								{
									OFFSET 24.65040 0.00000 0.00000
									CHANNELS 3 Zrotation Xrotation Yrotation
									JOINT LeftHandThumb1
									{
										OFFSET 5.35114 -0.85590 3.97906
										CHANNELS 3 Zrotation Xrotation Yrotation
										JOINT LeftHandThumb2
										{
											OFFSET 4.52789 0.00000 0.00000
											CHANNELS 3 Zrotation Xrotation Yrotation
											JOINT LeftHandThumb3
											{
												OFFSET 2.46977 0.00000 0.00000
												CHANNELS 3 Zrotation Xrotation Yrotation
												End site
												{
													OFFSET 0.00000 0.00000 0.00000
												}
											}
										}
									}
									JOINT LeftHandIndex1
									{
										OFFSET 14.26970 0.00000 2.88139
										CHANNELS 3 Zrotation Xrotation Yrotation
										JOINT LeftHandIndex2
										{
											OFFSET 5.48836 0.00000 0.00000
											CHANNELS 3 Zrotation Xrotation Yrotation
											JOINT LeftHandIndex3
											{
												OFFSET 3.01859 0.00000 0.00000
												CHANNELS 3 Zrotation Xrotation Yrotation
												End site
												{
													OFFSET 0.00000 0.00000 0.00000
												}
											}
										}
									}
									JOINT LeftHandMiddle1
									{
										OFFSET 14.26970 0.00000 -0.09147
										CHANNELS 3 Zrotation Xrotation Yrotation
										JOINT LeftHandMiddle2
										{
											OFFSET 6.17440 0.00000 0.00000
											CHANNELS 3 Zrotation Xrotation Yrotation
											JOINT LeftHandMiddle3
											{
												OFFSET 3.56744 0.00000 0.00000
												CHANNELS 3 Zrotation Xrotation Yrotation
												End site
												{
													OFFSET 0.00000 0.00000 0.00000
												}
											}
										}
									}
									JOINT LeftHandRing1
									{
										OFFSET 12.69180 0.00000 -3.06433
										CHANNELS 3 Zrotation Xrotation Yrotation
										JOINT LeftHandRing2
										{
											OFFSET 5.62556 0.00000 0.00000
											CHANNELS 3 Zrotation Xrotation Yrotation
											JOINT LeftHandRing3
											{
												OFFSET 3.56744 0.00000 0.00000
												CHANNELS 3 Zrotation Xrotation Yrotation
												End site
												{
													OFFSET 0.00000 0.00000 0.00000
												}
											}
										}
									}
									JOINT LeftHandPinky1
									{
										OFFSET 11.11390 0.00000 -6.03719
										CHANNELS 3 Zrotation Xrotation Yrotation
										JOINT LeftHandPinky2
										{
											OFFSET 4.52789 0.00000 0.00000
											CHANNELS 3 Zrotation Xrotation Yrotation
											JOINT LeftHandPinky3
											{
												OFFSET 2.46976 0.00000 0.00000
												CHANNELS 3 Zrotation Xrotation Yrotation
												End site
												{
													OFFSET 0.00000 0.00000 0.00000
												}
											}
										}
									}
								}
							}
						}
					}
					JOINT pCube4
					{
						OFFSET 0.00000 10.91090 1.10792
						CHANNELS 3 Zrotation Xrotation Yrotation
						End site
						{
							OFFSET 0.00000 0.00000 0.00000
						}
					}
				}
			}
		}
	}
	JOINT RightUpLeg
	{
		OFFSET -9.98441 0.00000 0.00000
		CHANNELS 3 Zrotation Xrotation Yrotation
		JOINT RightLeg
		{
			OFFSET 0.00000 -42.11790 0.00000
			CHANNELS 3 Zrotation Xrotation Yrotation
			JOINT RightFoot
			{
				OFFSET 0.00000 -45.00020 -0.00001
				CHANNELS 3 Zrotation Xrotation Yrotation
				JOINT RightForeFoot
				{
					OFFSET 0.00000 -3.74820 0.00000
					CHANNELS 3 Zrotation Xrotation Yrotation
					JOINT RightToeBase
					{
						OFFSET 0.00000 0.06325 14.43120
						CHANNELS 3 Zrotation Xrotation Yrotation
						End site
						{
							OFFSET 0.00000 0.00000 0.00000
						}
					}
				}
			}
		}
	}
	JOINT LeftUpLeg
	{
		OFFSET 9.98441 0.00000 0.00000
		CHANNELS 3 Zrotation Xrotation Yrotation
		JOINT LeftLeg
		{
			OFFSET 0.00000 -42.11800 0.00000
			CHANNELS 3 Zrotation Xrotation Yrotation
			JOINT LeftFoot
			{
				OFFSET 0.00000 -45.00070 0.00000
				CHANNELS 3 Zrotation Xrotation Yrotation
				JOINT LeftForeFoot
				{
					OFFSET 0.00000 -3.74824 0.00000
					CHANNELS 3 Zrotation Xrotation Yrotation
					JOINT LeftToeBase
					{
						OFFSET 0.00000 0.06325 14.43110
						CHANNELS 3 Zrotation Xrotation Yrotation
						End site
						{
							OFFSET 0.00000 0.00000 0.00000
						}
					}
				}
			}
		}
	}
}
MOTION
Frames: 4
Frame Time: 0.050000
-0.01844703683736504 0.04775239863606556 0.029239464037364757 0.012912025514315657 0.03289975114943944 -0.02264033068151193 -3.293288993271175 -0.14071821090146602 -0.797884866227081 -1.0489960719685547 3.7557478227206627 0.4249803261564533 -1.333500814756634 -1.954951314542444 -0.07151316694805972 -0.27290707052860846 0.35919481891714006 -0.6285195106377315 0.23637423877381408 12.306713864663694 -0.2602341768029058 0.16865009869302783 -1.220185738100993 -2.831711128773888 0.45418245128611934 -17.273118890403236 -0.24293642971681695 -5.281993077093453 1.9263390475093933 -14.640255724599838 71.87746217953745 30.931301505962672 11.208586428799642 1.3662562517965688 3.576030833335126 91.26206736765481 17.28448711610296 -0.5906728649850245 -4.3269682994893515 4.5709291886888055 -0.1367146933524022 -1.59158051674854 0.04254868539193007 -0.037598663769406133 -56.22128614213747 0.03647280118365516 -0.022505947759832876 -56.25006131656103 -38.75182926504771 -0.03590385457822094 0.014100290247388252 0.03875225069344062 0.007117788462271944 0.01096219837184616 0.03518111944824321 -0.0477797801995006 0.007031496941183506 -36.735550583807466 0.03404261008732858 -0.046405170725934905 0.004125804375379398 0.04590127461215328 0.04807678669104931 0.043042541775900965 0.013479510202257017 -0.04825561476262067 -19.74122814412776 0.04186084445611026 0.02863661262172356 0.04501692150955886 0.011993631133955471 0.04991932113403112 0.045328020507857635 0.021105984757982355 -0.009075242053588315 24.0757106388618 0.0034649582405967333 0.03306144773577788 28.82125933635827 0.027693378419320177 0.021431613826512017 28.877008283665603 0.010137416884941651 0.026587611672552424 4.862673653726732 1.122514118836897 13.189183472867786 -74.05790333130841 30.6344742975636 -3.636036272518342 1.4567718618596484 -8.123996914424328 -40.58255784573381 -15.606771163165858 -2.4173933398864493 5.558922482794433 -0.4963166870602462 0.05944556360943142 -8.17038307449873 0.030745971749797218 -0.006907198264935694 44.545796733347395 0.03175550534978226 0.0038296637338679483 44.599581682344585 12.438182372426832 -0.041064905961691434 0.014429984882705738 0.0010810620209702451 0.04825580644758259 0.0017288766193659982 -0.0062823691094569395 0.0008817230613863044 0.013211510089960035 11.066758518799167 0.02725567321418668 0.012826756417721531 -0.020208509920627064 0.009473236175475505 0.008971681014596918 0.023248249385000086 -0.010369119005198215 -0.019718707770405814 4.7797810960446885 -0.030035080073573757 -0.0314758173725379 -0.01597447241657528 0.01496333850109724 -0.0014715583821563463 -0.04925058718231323 -0.041007030050192926 -0.04253843008079561 -5.613695850742019 0.03718721788061191 0.033531668504211784 -6.753231085509664 0.03958656218136353 -0.04999360845107534 -6.7173665024799805 -0.04090814984383249 -0.020918234101062916 -0.02941861745440677 -0.00990344293347838 -0.0005207819540601971 8.028918200215866 3.523964444763516 -19.2626349904541 0.02855552741242972 10.44032535147104 0.031795959704833954 -5.614951408114115 -15.67179319823483 3.145599082620687 -0.04277663786793869 0.0096941926234121 -0.029367606800123187 -0.013328829710239729 4.652551502802196 -0.019056501314179117 12.450587913805963 -8.257909469648812 6.884858262178301 0.02001798776280105 46.391071531078225 0.0021450452442058577 -4.353069487620347 -14.750434330918958 -3.829131772525988 -0.00746737922316343 -0.021626065790200613 0.03089897305237601 -0.03822762173213769 -10.732653166984884 -0.02890412956077716 
-0.013388630189458288 -0.000490769560446197 -0.003566833902968277 0.021094081374991313 -0.011620045187259325 0.020154824476774878 -3.1343303817394874 -0.1871529646727025 -0.7863010893251875 -0.9802007095677032 3.742295979114301 0.4427648041415604 -1.298265340257701 -1.9186099682083337 -0.03366200271069666 -0.17102370178457785 0.3309935673705335 -0.6582241462941353 0.3392534804445084 12.16584750241945 -0.6678744715502458 0.09212944201057746 -1.2288097584088784 -3.7963871435170913 0.590439094724712 -17.329261856408852 -0.31475553796019945 -5.360740730904066 1.9091211693102836 -14.607736522129565 70.80527488675303 31.401881985910094 11.811254384245105 2.0209071740589133 3.5627903681188253 91.39919152683284 16.5845948141799 -0.6093170461765353 -4.10075251900072 4.512896941514882 -0.10976843328269409 -1.6349721040062974 -0.04931623954935317 -0.02809568830857233 -56.20982507794096 0.002567317583910007 0.012275012903835869 -56.245223788573036 -38.79600481760665 -0.012943424655157732 -0.031849842663728936 0.0017596953948038104 0.011611487910940979 -0.03853836465804188 -0.027878495678951596 0.03315870271572185 -0.026146737796014164 -36.65415353527987 0.04510280287796164 0.019644096913136375 0.033956804815186994 -0.04234508144256412 -0.024918328479314553 0.038145681499494814 -0.022404047119009216 -0.023623228707390094 -19.77689279016088 -0.008680068150416574 0.014667566770093714 -0.028652842301310197 -0.039194515644309896 -0.03980182768964236 0.030195642793235136 -0.03293388731546156 0.0012921061903887554 24.050395645995494 -0.008496094299927684 0.04262825976854854 28.90812877107207 0.012151372796924367 0.017315993942539038 28.90439754387377 0.02675769931398025 -0.008440884740539223 4.599610699965614 1.08544162905349 13.119462508477925 -73.8191835193717 30.989387944120963 -3.2804128213492656 0.6201771475511044 -7.645913951935728 -40.66293833304005 -15.546803743825462 -2.3210428330840003 5.242628836266111 -0.49911234305363317 0.020809794020056074 -8.076431244254373 0.03883438313018201 -0.00618272462651829 44.55094824095219 0.014823406990429555 0.00881600022248024 44.55272920287721 12.432351983840416 -0.015012601944150616 0.002735678236078714 -0.013951422927700654 0.018154194606027366 0.025919130112343047 0.012273635391667074 0.0311643498565615 0.025364542736252275 11.11293176979585 -0.034901684674873264 0.021032452968019894 0.03352019476459311 0.0046771683672023395 0.03726165792810836 0.005757499981739835 -0.00038367921776140726 -0.02036235153064654 4.730111771412114 -0.010546118068377673 0.022107219699290376 -0.0012578523953609682 0.038708521623396795 0.016122930722035186 -0.006345868719045069 -0.02885171208833908 0.00306618684182669 -5.6120654085996815 0.02687233215490485 -0.003717130259169988 -6.702650864364357 0.025160818233268285 -0.03909119490988264 -6.729168914764811 -0.03839607008101725 -0.0494919396753418 0.015687979343651386 -0.03971126268306242 0.04695928568900053 8.026678728828342 3.4813595777599664 -19.17421814094861 -0.00805850332997551 10.3524187934752 0.01878055875825709 -5.653261760680382 -15.623271706781928 3.1980790682840428 0.006811731669442756 -0.0020762980050320424 0.009271751011874026 -0.04954231078819056 4.689824535985852 0.033641906074601866 12.41165139575449 -8.19555524882081 6.853820077541822 0.04263592735892944 46.38156800228776 -0.029579750368570433 -4.362185150234514 -14.75752059239198 -3.816321569729012 -0.02261017446112453 -0.03934598235181732 -0.012083967060060714 -0.032879505206763686 -10.748822793378784 -0.024962837536788657 
0.042015193989570015 -0.008503537066659803 -0.018557182849971 0.013621384630269415 0.005839843972493577 -0.03777197298695808 -3.0215027010926114 -0.29157084793151133 -0.8395424829517251 -1.0206514449230226 3.7686404082788236 0.43284843172946336 -1.2843340954976716 -1.9601291430759373 0.08266857447930252 0.0018620478592650605 0.27885288512787565 -0.684599181126242 0.5180940249877433 12.019262058370085 -0.9883455035435873 0.1218261263374831 -1.3005422186205176 -4.847295025495077 0.6932511441792585 -17.34206615867063 -0.47840379386881904 -5.314740797286463 1.9492242875603683 -14.486527732438821 69.81736316063026 32.08102535476174 12.467901374100864 2.1546451368485577 3.2403408142216574 90.57022398996848 16.159312351006765 -0.6264677655223037 -3.9021740215707683 4.527889943984677 -0.16626158425507087 -1.5848705756369106 0.000683041502400159 0.031658083136588654 -56.214642233849005 -0.002918899342105669 -0.028303058941770515 -56.28175711511867 -38.803967913896955 0.04484138392907498 0.032496194374506515 0.03945143232190164 0.04550949875324662 -0.0358247609036636 0.031383947995178615 0.007971641208337406 -0.049918471568693557 -36.68732949290562 0.03561588300674513 0.047331188684951155 0.01655488736985457 0.018013933743901585 -0.012933607701755969 -0.009237272252646391 -0.022247823373411493 -0.010649486610660812 -19.77623566810891 0.034680554907700355 0.007612679567827508 0.007753745478385922 -0.013048997897695775 0.013003729135644286 0.03771243685978586 0.0014772633860601402 -0.022741352847861215 24.04683437280144 0.030219655711462227 -0.048950395470045975 28.91014466265011 -0.002881776958883646 -0.0430466027010904 28.852518422786698 -0.040863187137067596 0.010716882949920627 4.359356026540051 1.0273137661125735 13.039570018547877 -73.58119783901658 31.36078308522729 -2.718394824111463 0.390159515214072 -7.667655489927477 -40.7058217651602 -15.376204023449073 -1.966522154213757 4.908504706386489 -0.4310605897326971 0.01842748487724641 -8.11338355594842 -0.03380519095965994 -0.010946280299989102 44.58781473292382 -0.04064596099992618 0.04935157695725263 44.56024413468269 12.466130547352614 -0.013661330635892326 -0.04815749352168951 -0.002554544622234871 -0.0022802869591565427 0.04387417499679927 -0.011970285150274068 0.0027701509719193548 0.0232535390369684 11.088049459836318 -0.03269543093691522 0.008609618742346158 0.02589124974732614 0.004175811404132107 -0.015911549699856937 0.049883329826327094 -0.03098811177505806 -0.042033995119284726 4.785762617703816 -0.010632552236522172 -0.04115476212280271 -0.028533759364639113 -0.0029700152838063364 0.03042407034833912 -0.006458238027375529 0.030845584392224398 -0.03026663172243291 -5.631350877997277 0.004955180506536605 -0.03398795740711779 -6.744178698118979 0.04949433276871531 0.03301362626958773 -6.746315201265901 0.002212677048977402 -0.011186167528733092 -0.005076827821090384 -0.026006964194625216 0.03331258058188281 8.056842469788533 3.458198139948796 -19.18825324026046 0.007740087864122475 10.3511030392914 -0.01405531288254987 -5.617935194563668 -15.617813363365059 3.167668648844374 0.03542609891901921 -0.02228719750061856 -0.013579125729750436 -0.03483749492835311 4.698961299829758 0.032485210045359716 12.471211872363984 -8.227623396544876 6.883333395060429 0.038841153693081075 46.4041031494477 -0.014521678660993558 -4.352904058102014 -14.732596381804061 -3.8022027919710424 0.021827210671098777 -0.0014440650965495056 0.0212165418073506 0.010549623891763353 -10.77877307349281 -0.009373729001918891 
-0.0430876206441724 -0.025401512849049446 -0.024760511427344954 0.011837200631038935 -0.02427960551136531 0.01071732901135794 -2.8503372486361993 -0.3314229046313101 -0.8819271138445485 -0.9807559534005721 3.81306928766719 0.3664912321005515 -1.3236585157760001 -1.8787625973850979 0.17886755141179211 0.0470346541100667 0.26983298464768607 -0.6551156876572791 0.5740846907231649 11.897800531187887 -1.3188373101143684 0.11461970891246678 -1.3039204507479705 -5.690232296670831 0.7288004524732616 -17.328342319447472 -0.5482265104245505 -5.414855652524032 1.90915381198128 -14.443992243562397 69.03029174797085 32.97787710859954 13.683883196288097 2.00939595303269 2.9217650917896565 90.60923439073443 15.846673908884966 -0.6442521008811588 -3.8034591046279926 4.544506158027971 -0.09153194438477205 -1.573748126652515 0.0361084056632169 0.01716291323561151 -56.282802062241615 -0.021214074629436787 -0.01700221165741411 -56.283090208591986 -38.73304483783664 0.03928831723425967 0.04614468258452519 -0.021574710040971036 -0.031221812604398186 0.0359464619758169 -0.013669712914740617 0.03996973795458582 -0.022364278809539385 -36.698781576966574 -0.015163587405060436 0.028694269870953793 0.025287439905622423 0.034521256577446674 -0.027362603419697276 0.011902477602831849 -0.019614675458553096 0.002343099332982995 -19.738789282594496 0.020041707581199043 -0.028292185887797125 0.011106002362948333 0.037441697812385176 0.020368669979978212 -0.04258881233722945 0.0162593756497609 -0.000854397114924879 24.035182312182663 -0.008322626357913912 -0.03630579685033823 28.892868944606782 -0.006012382827869275 -0.01599507071247661 28.89162246834444 0.04408499249518511 0.04088330437709827 4.219823727863355 1.0126425189385027 12.939934880667234 -73.3644912325449 31.43264330567535 -2.4154335561181752 0.6069344417849515 -7.992021463610678 -41.014994970699846 -15.16281480097225 -1.8332802099954393 4.669065337377754 -0.4985301356505576 0.10278487819045562 -8.166446188863413 -0.03741264937085463 0.04846561475542224 44.590883479594474 0.0364861268450229 0.001691791503729697 44.55043475348457 12.469090502329491 0.018866152340434955 0.005054103163978012 -4.9257333168445096e-05 -0.0012600622048261204 -0.04352984643355485 -0.0030472139635687326 0.03558792426433918 0.001288736364818133 11.150108595587758 0.01513978955391374 -0.04473292602010541 -0.04419662492633742 -0.01052752213675856 -0.019448130337095002 -0.045554829503658543 -0.04085640804667752 0.042815027874705355 4.806700656138462 0.01966700913842677 0.048044862798307206 -0.014405843015539873 0.0044987417944630185 0.021930467537034898 0.03753917332450025 -0.031588590185700496 -0.006946690361641571 -5.563564795484587 -0.04640320490123516 0.023123324560823517 -6.7157330198209575 -0.009567633685260866 0.04363918704080108 -6.685227291519707 0.003735596518599284 0.0244522559646547 -0.022194438586570678 -0.008414652392429169 0.008491236018000694 8.054515086800002 3.533409019390269 -19.203714711076536 -0.03407140316488858 10.403453576280395 0.05232485074681792 -5.614262434399089 -15.677448840014183 3.1814155811451696 0.044922063424480706 0.03640686499542454 -0.012706690578203667 -0.012368754517690969 4.662024949114675 -0.01951197574080298 12.501735565343871 -8.271956583365967 6.927803185777949 -0.024702716333992764 46.37561061595369 0.015561290265906871 -4.301822896135778 -14.790592369356377 -3.7880583748362273 0.0062970256923547754 -0.03188130262108178 0.026247571413326242 -0.029435249042447275 -10.712813670977726 -0.03004871478634924 
